<?xml version="1.0" encoding="utf-8"?>
<!-- Generator: Adobe Illustrator 16.0.4, SVG Export Plug-In . SVG Version: 6.00 Build 0)  -->
<!DOCTYPE svg PUBLIC "-//W3C//DTD SVG 1.1//EN" "http://www.w3.org/Graphics/SVG/1.1/DTD/svg11.dtd">
<svg version="1.1" id="Layer_1" xmlns="http://www.w3.org/2000/svg" xmlns:xlink="http://www.w3.org/1999/xlink" x="0px" y="0px"
	 width="256px" height="256px" viewBox="0 0 256 256" enable-background="new 0 0 256 256" xml:space="preserve">
<g>
	<defs>
		<rect id="SVGID_1_" width="256" height="256"/>
	</defs>
	<clipPath id="SVGID_2_">
		<use xlink:href="#SVGID_1_"  overflow="visible"/>
	</clipPath>
	<path clip-path="url(#SVGID_2_)" fill="#41AD49" d="M117,0h22c1.452,0.328,2.89,0.756,4.358,0.969
		c47.158,6.847,80.908,31.899,101.469,74.793c6.25,13.041,8.885,27.102,11.173,41.238v22c-0.383,2.107-0.849,4.203-1.135,6.324
		c-7.018,52.002-45.703,94.845-96.787,107.015c-6.293,1.499-12.716,2.454-19.078,3.661h-22c-1.452-0.327-2.89-0.753-4.359-0.967
		c-47.154-6.852-80.916-31.888-101.469-74.795C4.925,167.196,2.282,153.137,0,139v-22c0.382-2.108,0.849-4.204,1.135-6.324
		C8.331,57.409,48.676,13.963,101.326,2.871C106.522,1.777,111.774,0.95,117,0 M162.168,195.991
		c10.225,0.044,16.301-1.911,20.678-6.042c3.392-3.201,6.693-6.504,9.901-9.889c4.266-4.499,4.552-9.652,0.216-14.251
		c-6.969-7.39-14.158-14.59-21.559-21.546c-4.581-4.307-9.724-3.948-14.269,0.383c-3.738,3.562-7.416,7.196-10.963,10.947
		c-2.684,2.838-5.262,2.889-8.347,0.666c-14.87-10.712-27.619-23.513-38.289-38.409c-2.123-2.964-1.823-5.431,0.789-7.931
		c3.73-3.57,7.373-7.236,10.948-10.962c4.377-4.562,4.828-9.693,0.552-14.253c-7.061-7.53-14.373-14.847-21.918-21.89
		c-4.532-4.23-9.623-3.696-14.241,0.701c-2.654,2.527-5.12,5.254-7.812,7.737c-5.514,5.085-7.743,11.495-7.847,18.796
		c-0.151,10.604,3.006,20.428,7.737,29.698c15.566,30.498,38.71,53.514,69.293,68.913
		C145.728,193.035,154.97,195.823,162.168,195.991"/>
</g>
</svg>
